<?xml version="1.0" encoding="utf-8"?>
<!-- Generator: Adobe Illustrator 22.0.0, SVG Export Plug-In . SVG Version: 6.00 Build 0)  -->
<svg version="1.1" id="Layer_1" xmlns="http://www.w3.org/2000/svg" xmlns:xlink="http://www.w3.org/1999/xlink" x="0px" y="0px"
	 viewBox="0 0 557 184.3" style="enable-background:new 0 0 557 184.3;" xml:space="preserve">
<style type="text/css">
	.st0{clip-path:url(#SVGID_2_);fill:#2F75BB;}
	.st1{clip-path:url(#SVGID_2_);fill:#292964;}
	.st2{clip-path:url(#SVGID_2_);fill:#9E9E9F;}
	.st3{clip-path:url(#SVGID_2_);fill:#00A497;}
</style>
<g>
	<defs>
		<rect id="SVGID_1_" x="-117" y="-72.4" width="792" height="341.1"/>
	</defs>
	<clipPath id="SVGID_2_">
		<use xlink:href="#SVGID_1_"  style="overflow:visible;"/>
	</clipPath>
	<path class="st0" d="M217.2,80.5c3.3,2.4,6.8,4.6,10.4,6.6c3.7,2,7.5,3,11.6,3c2.9,0,5.1-0.6,6.7-1.9c1.6-1.3,2.4-3.1,2.4-5.4
		c0-2-0.7-3.6-2.1-4.9c-1.4-1.3-3.3-2.5-5.7-3.7l-9.4-3.7c-2.4-1-4.7-2.2-7-3.5c-2.3-1.4-4.4-3-6.2-5c-1.8-2-3.3-4.2-4.4-6.8
		c-1.1-2.6-1.7-5.6-1.7-8.9c0-3.4,0.6-6.5,1.8-9.3s2.9-5.3,5.2-7.4c2.3-2.1,5.1-3.7,8.4-4.9c3.3-1.1,7.1-1.7,11.3-1.7
		c5.1,0,9.7,0.9,13.9,2.6c4.1,1.7,8.1,4,11.8,6.9l-7.8,12.4c-1-0.7-2.1-1.5-3.4-2.2c-1.3-0.7-2.7-1.4-4.2-2
		c-1.5-0.6-3.1-1.1-4.7-1.5c-1.6-0.4-3.2-0.6-4.8-0.6c-2.4,0-4.4,0.6-6.2,1.7c-1.7,1.2-2.6,2.8-2.6,4.9c0,2.1,0.8,3.9,2.3,5.2
		c1.5,1.3,3.9,2.7,7.2,4.1l9.2,4.2c5.2,2.2,9.4,5.1,12.7,8.7c3.3,3.6,4.9,8.2,4.9,13.8c0,3.9-0.7,7.3-2.1,10.3
		c-1.4,3-3.3,5.6-5.8,7.7c-2.5,2.1-5.5,3.7-8.9,4.9c-3.4,1.1-7.2,1.7-11.2,1.7c-2.8,0-5.5-0.4-8.2-1c-2.7-0.7-5.3-1.6-7.8-2.8
		c-2.5-1.1-5-2.5-7.3-3.9c-2.3-1.5-4.4-3-6.4-4.7L217.2,80.5z"/>
	<rect x="280.5" y="24.4" class="st0" width="18.3" height="79.8"/>
	<path class="st0" d="M382.1,95.1c-1.7,1.2-3.5,2.3-5.4,3.6c-1.9,1.2-4,2.4-6.3,3.4c-2.3,1.1-5,1.9-7.9,2.6c-3,0.7-6.4,1-10.2,1
		c-5.9,0-11.3-1-16.3-3.1c-5-2.1-9.2-4.9-12.8-8.6c-3.6-3.7-6.3-8.1-8.3-13.2c-2-5.1-3-10.7-3-16.7c0-6.2,1.1-11.9,3.3-17
		c2.2-5.1,5.1-9.5,8.8-13.1c3.7-3.7,8-6.5,12.9-8.4c4.9-2,10-3,15.5-3c3.2,0,6.1,0.3,8.7,0.8c2.6,0.5,5,1.2,7.2,2
		c2.2,0.8,4.1,1.7,5.8,2.7s3.3,1.9,4.7,2.7L371,44.5c-1.6-0.9-3.8-2-6.8-3.3c-3-1.3-6.6-1.9-10.8-1.9c-3.3,0-6.3,0.6-9.1,1.8
		c-2.8,1.2-5.2,2.9-7.3,5c-2.1,2.2-3.7,4.8-4.9,7.8c-1.2,3-1.8,6.3-1.8,9.8c0,3.8,0.6,7.2,1.8,10.3c1.2,3.1,2.9,5.8,5,8.1
		c2.1,2.3,4.6,4,7.5,5.2c2.9,1.2,6,1.8,9.4,1.8c2.5,0,4.7-0.3,6.8-0.8c2.1-0.5,3.9-1.2,5.5-1.9c1.6-0.7,3.1-1.5,4.4-2.3
		c1.3-0.8,2.4-1.6,3.5-2.2L382.1,95.1z"/>
	<polygon class="st0" points="385,24.4 403.6,24.4 417.2,67.5 435.2,24.4 453.4,67.9 466.6,24.4 485.1,24.4 460,105.1 455,105.1 
		435,61.4 415.1,105.1 410,105.1 	"/>
	<path class="st0" d="M497.2,80.5c3.3,2.4,6.8,4.6,10.4,6.6c3.7,2,7.5,3,11.6,3c2.9,0,5.1-0.6,6.7-1.9c1.6-1.3,2.4-3.1,2.4-5.4
		c0-2-0.7-3.6-2.1-4.9c-1.4-1.3-3.3-2.5-5.7-3.7l-9.4-3.7c-2.4-1-4.7-2.2-7-3.5c-2.3-1.4-4.4-3-6.2-5c-1.8-2-3.3-4.2-4.4-6.8
		c-1.1-2.6-1.7-5.6-1.7-8.9c0-3.4,0.6-6.5,1.8-9.3s2.9-5.3,5.2-7.4c2.3-2.1,5.1-3.7,8.4-4.9c3.3-1.1,7.1-1.7,11.3-1.7
		c5.1,0,9.7,0.9,13.9,2.6c4.1,1.7,8.1,4,11.8,6.9l-7.8,12.4c-1-0.7-2.1-1.5-3.4-2.2c-1.3-0.7-2.7-1.4-4.2-2
		c-1.5-0.6-3.1-1.1-4.7-1.5c-1.6-0.4-3.2-0.6-4.8-0.6c-2.4,0-4.4,0.6-6.2,1.7c-1.7,1.2-2.6,2.8-2.6,4.9c0,2.1,0.8,3.9,2.3,5.2
		c1.5,1.3,3.9,2.7,7.2,4.1l9.2,4.2c5.2,2.2,9.4,5.1,12.7,8.7c3.3,3.6,4.9,8.2,4.9,13.8c0,3.9-0.7,7.3-2.1,10.3
		c-1.4,3-3.3,5.6-5.8,7.7c-2.5,2.1-5.5,3.7-8.9,4.9c-3.4,1.1-7.2,1.7-11.2,1.7c-2.8,0-5.5-0.4-8.2-1c-2.7-0.7-5.3-1.6-7.8-2.8
		c-2.5-1.1-5-2.5-7.3-3.9c-2.3-1.5-4.4-3-6.4-4.7L497.2,80.5z"/>
	<path class="st1" d="M211.4,130.3c0.2,0.2,0.4,0.4,0.7,0.6c0.3,0.2,0.5,0.4,0.9,0.6c0.3,0.2,0.6,0.4,1,0.5c0.4,0.1,0.7,0.2,1.1,0.2
		c0.7,0,1.2-0.2,1.6-0.5c0.4-0.3,0.5-0.8,0.5-1.4c0-0.5-0.2-0.9-0.5-1.3c-0.4-0.3-0.8-0.7-1.5-1l-1.2-0.6c-0.3-0.1-0.6-0.3-1-0.5
		c-0.4-0.2-0.7-0.5-1-0.7c-0.3-0.3-0.6-0.6-0.8-1c-0.2-0.4-0.3-0.9-0.3-1.4c0-0.5,0.1-0.9,0.2-1.3c0.2-0.4,0.4-0.8,0.7-1.1
		c0.3-0.3,0.7-0.6,1.2-0.7c0.5-0.2,1.1-0.3,1.7-0.3c0.4,0,0.8,0,1.2,0.1c0.4,0.1,0.7,0.2,1,0.4s0.6,0.3,0.8,0.5
		c0.2,0.2,0.5,0.4,0.7,0.6l-0.9,1.1c-0.1-0.1-0.3-0.3-0.5-0.4c-0.2-0.1-0.4-0.3-0.7-0.4c-0.2-0.1-0.5-0.2-0.8-0.3
		c-0.3-0.1-0.6-0.1-0.9-0.1c-0.3,0-0.5,0-0.8,0.1c-0.3,0.1-0.5,0.2-0.7,0.3c-0.2,0.2-0.4,0.3-0.5,0.6c-0.1,0.2-0.2,0.5-0.2,0.8
		c0,0.5,0.1,0.8,0.4,1.2c0.3,0.3,0.8,0.7,1.4,1l1.5,0.8c0.3,0.2,0.6,0.4,1,0.6c0.3,0.2,0.6,0.5,0.9,0.7c0.3,0.3,0.5,0.6,0.6,1
		c0.2,0.4,0.2,0.8,0.2,1.3c0,0.5-0.1,0.9-0.2,1.4c-0.2,0.4-0.4,0.8-0.7,1.1c-0.3,0.3-0.7,0.6-1.2,0.8c-0.5,0.2-1.1,0.3-1.7,0.3
		c-0.5,0-0.9-0.1-1.4-0.2c-0.4-0.1-0.8-0.3-1.2-0.5c-0.4-0.2-0.7-0.4-1-0.7c-0.3-0.3-0.6-0.5-0.8-0.7L211.4,130.3z"/>
	<path class="st1" d="M226.9,122.3c-0.3,0-0.6-0.1-0.9-0.3c-0.3-0.2-0.4-0.5-0.4-0.9c0-0.4,0.1-0.7,0.4-0.9c0.3-0.2,0.6-0.3,0.9-0.3
		c0.3,0,0.6,0.1,0.9,0.3c0.3,0.2,0.4,0.5,0.4,0.9c0,0.4-0.1,0.7-0.4,0.9C227.6,122.2,227.3,122.3,226.9,122.3 M226.1,124.2h1.7v9.4
		h-1.7V124.2z"/>
	<path class="st1" d="M235.6,131c0.2,0.1,0.4,0.3,0.6,0.4c0.2,0.2,0.4,0.3,0.7,0.4c0.2,0.1,0.5,0.2,0.8,0.3c0.3,0.1,0.6,0.1,0.9,0.1
		c0.5,0,0.9-0.1,1.2-0.3c0.3-0.2,0.5-0.5,0.5-0.9c0-0.4-0.1-0.7-0.5-0.9c-0.3-0.2-0.7-0.4-1.3-0.6l-1.1-0.4c-0.7-0.3-1.2-0.6-1.6-1
		c-0.4-0.4-0.6-1-0.6-1.7c0-0.4,0.1-0.7,0.2-1c0.2-0.3,0.4-0.6,0.6-0.8c0.3-0.2,0.6-0.4,1-0.6c0.4-0.1,0.8-0.2,1.2-0.2
		c0.7,0,1.3,0.1,1.8,0.3c0.5,0.2,0.9,0.4,1.4,0.8l-0.7,1.1c-0.3-0.2-0.6-0.3-1-0.5c-0.4-0.2-0.8-0.3-1.4-0.3c-0.4,0-0.7,0.1-1,0.3
		c-0.3,0.2-0.4,0.5-0.4,0.8c0,0.3,0.1,0.6,0.3,0.8c0.2,0.2,0.5,0.4,1.1,0.6l1.3,0.5c0.3,0.1,0.6,0.3,0.9,0.4
		c0.3,0.2,0.5,0.3,0.8,0.5c0.2,0.2,0.4,0.4,0.5,0.7s0.2,0.6,0.2,0.9c0,0.4-0.1,0.8-0.2,1.1c-0.2,0.3-0.4,0.6-0.7,0.9
		c-0.3,0.2-0.7,0.4-1.1,0.6c-0.4,0.1-0.9,0.2-1.4,0.2c-0.8,0-1.4-0.2-2.1-0.5c-0.6-0.3-1.2-0.6-1.7-1L235.6,131z"/>
	<path class="st1" d="M247.3,124.2h2v-3.3l1.7-0.2v3.6h3.7v1.5h-3.7v4.2c0,0.8,0.2,1.4,0.5,1.8c0.3,0.4,0.8,0.6,1.4,0.6
		c0.4,0,0.7-0.1,1-0.2c0.3-0.1,0.6-0.3,0.8-0.4l0.6,1.2c-0.3,0.2-0.7,0.4-1.1,0.6c-0.4,0.2-1,0.3-1.6,0.3c-0.6,0-1.1-0.1-1.5-0.3
		c-0.4-0.2-0.8-0.4-1.1-0.8c-0.3-0.3-0.5-0.7-0.6-1.1c-0.1-0.4-0.2-0.9-0.2-1.3v-4.6h-2V124.2z"/>
	<path class="st1" d="M262.5,129.3c0.1,0.4,0.2,0.8,0.3,1.1c0.2,0.4,0.4,0.7,0.6,0.9c0.3,0.3,0.6,0.5,1,0.6c0.4,0.2,0.8,0.2,1.3,0.2
		c0.3,0,0.7,0,0.9-0.1c0.3-0.1,0.5-0.2,0.8-0.3c0.2-0.1,0.4-0.2,0.6-0.3c0.2-0.1,0.3-0.2,0.5-0.4l0.7,1.2c-0.2,0.1-0.4,0.3-0.7,0.5
		c-0.2,0.2-0.5,0.3-0.8,0.5c-0.3,0.1-0.6,0.3-1,0.4c-0.4,0.1-0.8,0.1-1.2,0.1c-0.7,0-1.3-0.1-1.9-0.4c-0.6-0.2-1.1-0.6-1.5-1
		c-0.4-0.4-0.7-1-1-1.6c-0.2-0.6-0.4-1.3-0.4-2c0-0.7,0.1-1.4,0.3-2c0.2-0.6,0.5-1.1,0.9-1.5c0.4-0.4,0.9-0.8,1.4-1
		c0.5-0.2,1.1-0.4,1.8-0.4c0.7,0,1.4,0.1,1.9,0.4c0.5,0.3,0.9,0.6,1.3,1.1c0.3,0.4,0.6,1,0.7,1.5c0.2,0.6,0.2,1.2,0.2,1.8l0,0.6
		H262.5z M265.3,125.3c-0.8,0-1.4,0.2-1.8,0.7c-0.5,0.5-0.8,1.1-0.9,1.9h5.2c0-0.3-0.1-0.7-0.1-1c-0.1-0.3-0.2-0.6-0.5-0.8
		c-0.2-0.2-0.5-0.4-0.8-0.6C266.1,125.4,265.7,125.3,265.3,125.3"/>
	<path class="st1" d="M276.4,124.2h1.7v1.5c0.1-0.2,0.3-0.4,0.4-0.6c0.2-0.2,0.4-0.4,0.6-0.6c0.2-0.2,0.5-0.3,0.8-0.4
		c0.3-0.1,0.6-0.1,1-0.1c0.8,0,1.5,0.2,2,0.5c0.6,0.3,0.9,0.9,1.2,1.5c0.1-0.2,0.3-0.5,0.4-0.7c0.2-0.2,0.4-0.5,0.6-0.7
		c0.2-0.2,0.5-0.4,0.8-0.5c0.3-0.1,0.7-0.2,1.1-0.2c0.5,0,0.9,0.1,1.3,0.2c0.4,0.1,0.8,0.3,1.1,0.6c0.3,0.3,0.5,0.6,0.7,1
		c0.2,0.4,0.2,0.9,0.2,1.4v6.4h-1.7v-5.9c0-0.7-0.2-1.3-0.6-1.6c-0.4-0.3-0.9-0.5-1.5-0.5c-0.3,0-0.6,0.1-0.9,0.2
		c-0.3,0.1-0.5,0.3-0.7,0.6c-0.2,0.3-0.4,0.6-0.5,1c-0.1,0.4-0.2,0.9-0.2,1.5v4.9h-1.7v-5.9c0-0.7-0.2-1.3-0.6-1.6
		c-0.4-0.3-0.9-0.5-1.5-0.5c-0.3,0-0.6,0.1-0.8,0.2c-0.3,0.1-0.5,0.3-0.8,0.5c-0.2,0.2-0.4,0.6-0.5,0.9c-0.1,0.4-0.2,0.9-0.2,1.4v5
		h-1.7V124.2z"/>
	<path class="st1" d="M304.5,132.2c-0.3,0.4-0.7,0.7-1.2,1c-0.5,0.3-1.1,0.5-1.8,0.5c-0.6,0-1.2-0.1-1.7-0.3c-0.5-0.2-1-0.5-1.3-0.9
		c-0.4-0.4-0.7-0.9-0.9-1.5c-0.2-0.6-0.3-1.3-0.3-2.1c0-0.7,0.1-1.3,0.3-1.9c0.2-0.6,0.5-1.1,0.9-1.5c0.4-0.4,0.8-0.7,1.4-1
		c0.5-0.2,1.1-0.4,1.7-0.4c0.7,0,1.3,0.1,1.8,0.4c0.5,0.3,0.9,0.6,1.1,0.9v-1.1h1.7v9.4h-1.7V132.2z M301.8,132.3
		c0.4,0,0.8-0.1,1.2-0.3c0.3-0.2,0.6-0.4,0.9-0.7c0.2-0.3,0.4-0.7,0.6-1.1c0.1-0.4,0.2-0.9,0.2-1.3c0-0.6-0.1-1.2-0.2-1.6
		c-0.2-0.4-0.4-0.8-0.6-1.1c-0.3-0.3-0.6-0.5-0.9-0.6c-0.3-0.1-0.7-0.2-1.1-0.2c-0.4,0-0.8,0.1-1.2,0.3c-0.3,0.2-0.6,0.4-0.9,0.7
		c-0.2,0.3-0.4,0.7-0.5,1.1c-0.1,0.4-0.2,0.9-0.2,1.4c0,1,0.2,1.8,0.7,2.5C300.2,131.9,300.9,132.3,301.8,132.3"/>
	<path class="st1" d="M314,131c0.2,0.1,0.4,0.3,0.6,0.4c0.2,0.2,0.4,0.3,0.7,0.4c0.2,0.1,0.5,0.2,0.8,0.3c0.3,0.1,0.6,0.1,0.9,0.1
		c0.5,0,0.9-0.1,1.2-0.3c0.3-0.2,0.4-0.5,0.4-0.9c0-0.4-0.1-0.7-0.4-0.9c-0.3-0.2-0.7-0.4-1.3-0.6l-1.1-0.4c-0.7-0.3-1.2-0.6-1.6-1
		c-0.4-0.4-0.6-1-0.6-1.7c0-0.4,0.1-0.7,0.2-1c0.2-0.3,0.4-0.6,0.6-0.8c0.3-0.2,0.6-0.4,1-0.6c0.4-0.1,0.8-0.2,1.2-0.2
		c0.7,0,1.3,0.1,1.8,0.3c0.5,0.2,0.9,0.4,1.4,0.8l-0.7,1.1c-0.3-0.2-0.6-0.3-1-0.5c-0.4-0.2-0.9-0.3-1.4-0.3c-0.4,0-0.7,0.1-1,0.3
		c-0.3,0.2-0.4,0.5-0.4,0.8c0,0.3,0.1,0.6,0.3,0.8c0.2,0.2,0.5,0.4,1.1,0.6l1.3,0.5c0.3,0.1,0.6,0.3,0.9,0.4
		c0.3,0.2,0.5,0.3,0.8,0.5c0.2,0.2,0.4,0.4,0.5,0.7c0.1,0.3,0.2,0.6,0.2,0.9c0,0.4-0.1,0.8-0.2,1.1c-0.2,0.3-0.4,0.6-0.7,0.9
		c-0.3,0.2-0.7,0.4-1.1,0.6c-0.4,0.1-0.9,0.2-1.4,0.2c-0.8,0-1.4-0.2-2.1-0.5c-0.6-0.3-1.2-0.6-1.7-1L314,131z"/>
	<path class="st1" d="M341.9,132.2c-0.3,0.4-0.7,0.7-1.2,1c-0.5,0.3-1.1,0.5-1.8,0.5c-0.6,0-1.2-0.1-1.7-0.3c-0.5-0.2-1-0.5-1.3-0.9
		c-0.4-0.4-0.7-0.9-0.9-1.5c-0.2-0.6-0.3-1.3-0.3-2.1c0-0.7,0.1-1.3,0.3-1.9c0.2-0.6,0.5-1.1,0.9-1.5c0.4-0.4,0.8-0.7,1.4-1
		c0.5-0.2,1.1-0.4,1.7-0.4c0.7,0,1.3,0.1,1.8,0.4c0.5,0.3,0.9,0.6,1.2,0.9v-6.2h1.7v14.4h-1.7V132.2z M339.2,132.3
		c0.4,0,0.8-0.1,1.2-0.3c0.3-0.2,0.6-0.4,0.9-0.7c0.2-0.3,0.4-0.7,0.6-1.1c0.1-0.4,0.2-0.9,0.2-1.3c0-0.6-0.1-1.2-0.2-1.6
		c-0.2-0.4-0.4-0.8-0.6-1.1c-0.3-0.3-0.6-0.5-0.9-0.6c-0.3-0.1-0.7-0.2-1.1-0.2c-0.4,0-0.8,0.1-1.2,0.3c-0.3,0.2-0.6,0.4-0.9,0.7
		c-0.2,0.3-0.4,0.7-0.5,1.1c-0.1,0.4-0.2,0.9-0.2,1.4c0,1,0.2,1.8,0.7,2.5C337.6,131.9,338.3,132.3,339.2,132.3"/>
	<path class="st1" d="M352.3,129.3c0.1,0.4,0.2,0.8,0.3,1.1c0.2,0.4,0.4,0.7,0.6,0.9c0.3,0.3,0.6,0.5,1,0.6c0.4,0.2,0.8,0.2,1.3,0.2
		c0.3,0,0.7,0,0.9-0.1c0.3-0.1,0.5-0.2,0.8-0.3c0.2-0.1,0.4-0.2,0.6-0.3c0.2-0.1,0.3-0.2,0.5-0.4l0.7,1.2c-0.2,0.1-0.4,0.3-0.7,0.5
		c-0.2,0.2-0.5,0.3-0.8,0.5c-0.3,0.1-0.6,0.3-1,0.4c-0.4,0.1-0.8,0.1-1.2,0.1c-0.7,0-1.3-0.1-1.9-0.4c-0.6-0.2-1.1-0.6-1.5-1
		c-0.4-0.4-0.7-1-1-1.6c-0.2-0.6-0.4-1.3-0.4-2c0-0.7,0.1-1.4,0.3-2c0.2-0.6,0.5-1.1,0.9-1.5c0.4-0.4,0.9-0.8,1.4-1
		c0.5-0.2,1.1-0.4,1.8-0.4c0.7,0,1.4,0.1,1.9,0.4c0.5,0.3,0.9,0.6,1.3,1.1c0.3,0.4,0.6,1,0.7,1.5c0.2,0.6,0.2,1.2,0.2,1.8l0,0.6
		H352.3z M355.1,125.3c-0.8,0-1.4,0.2-1.8,0.7c-0.5,0.5-0.8,1.1-0.9,1.9h5.2c0-0.3-0.1-0.7-0.2-1c-0.1-0.3-0.2-0.6-0.5-0.8
		c-0.2-0.2-0.5-0.4-0.8-0.6C355.8,125.4,355.5,125.3,355.1,125.3"/>
	<rect x="375.5" y="120.6" class="st1" width="1.7" height="12.9"/>
	<path class="st1" d="M385,124.2h1.7v1.5c0.1-0.2,0.3-0.4,0.5-0.7c0.2-0.2,0.4-0.4,0.6-0.6c0.2-0.2,0.5-0.3,0.8-0.4
		c0.3-0.1,0.6-0.1,1-0.1c0.5,0,0.9,0.1,1.3,0.2c0.4,0.1,0.8,0.3,1.1,0.6c0.3,0.3,0.5,0.6,0.7,1c0.2,0.4,0.2,0.9,0.2,1.4v6.4h-1.7
		v-5.9c0-0.7-0.2-1.3-0.6-1.6c-0.4-0.3-0.9-0.5-1.5-0.5c-0.3,0-0.6,0.1-0.9,0.2c-0.3,0.1-0.6,0.3-0.8,0.5c-0.2,0.2-0.4,0.6-0.6,0.9
		c-0.2,0.4-0.2,0.9-0.2,1.4v5H385V124.2z"/>
	<path class="st1" d="M399.5,124.2h2v-1c0-0.6,0.1-1.1,0.3-1.6c0.2-0.5,0.4-1,0.7-1.4c0.3-0.4,0.7-0.7,1.2-0.9
		c0.5-0.2,1-0.3,1.7-0.3c0.3,0,0.7,0,0.9,0.1c0.3,0.1,0.5,0.1,0.8,0.2c0.2,0.1,0.4,0.2,0.6,0.3c0.2,0.1,0.4,0.3,0.6,0.4l-0.8,1.2
		c-0.3-0.2-0.6-0.4-0.9-0.5c-0.3-0.1-0.7-0.2-1.2-0.2c-0.7,0-1.2,0.2-1.6,0.7c-0.4,0.5-0.6,1.1-0.6,2v1.1h3.5v1.5h-3.5v7.9h-1.7
		v-7.9h-2V124.2z"/>
	<path class="st1" d="M416.4,133.8c-0.7,0-1.3-0.1-1.9-0.4c-0.6-0.3-1.1-0.6-1.5-1s-0.7-1-0.9-1.6c-0.2-0.6-0.3-1.3-0.3-2
		c0-0.7,0.1-1.4,0.3-2c0.2-0.6,0.5-1.1,0.9-1.6c0.4-0.4,0.9-0.8,1.5-1c0.6-0.3,1.2-0.4,1.9-0.4c0.7,0,1.3,0.1,1.9,0.4
		c0.6,0.3,1.1,0.6,1.5,1c0.4,0.4,0.7,1,0.9,1.6c0.2,0.6,0.3,1.3,0.3,2c0,0.7-0.1,1.4-0.3,2c-0.2,0.6-0.5,1.1-0.9,1.6
		c-0.4,0.4-0.9,0.8-1.5,1C417.8,133.7,417.1,133.8,416.4,133.8 M416.4,132.3c0.5,0,0.9-0.1,1.3-0.3c0.4-0.2,0.7-0.5,0.9-0.8
		c0.3-0.3,0.4-0.7,0.6-1.1c0.1-0.4,0.2-0.8,0.2-1.3c0-0.5-0.1-0.9-0.2-1.3c-0.1-0.4-0.3-0.8-0.6-1.1c-0.3-0.3-0.6-0.6-0.9-0.8
		c-0.4-0.2-0.8-0.3-1.3-0.3c-0.5,0-0.9,0.1-1.3,0.3c-0.4,0.2-0.7,0.4-0.9,0.8c-0.2,0.3-0.4,0.7-0.6,1.1c-0.1,0.4-0.2,0.9-0.2,1.3
		c0,0.4,0.1,0.9,0.2,1.3c0.1,0.4,0.3,0.8,0.6,1.1c0.2,0.3,0.6,0.6,0.9,0.8C415.5,132.2,415.9,132.3,416.4,132.3"/>
	<path class="st1" d="M428.1,124.2h1.7v1.8c0.3-0.6,0.7-1.1,1.1-1.4c0.4-0.4,0.9-0.6,1.6-0.6c0.1,0,0.3,0,0.5,0c0.2,0,0.3,0,0.5,0.1
		l-0.3,1.6c-0.2,0-0.3-0.1-0.5-0.1s-0.3,0-0.4,0c-0.3,0-0.7,0.1-0.9,0.2c-0.3,0.2-0.6,0.4-0.8,0.6c-0.2,0.3-0.4,0.6-0.5,0.9
		c-0.1,0.3-0.2,0.7-0.2,1.1v5.1h-1.7V124.2z"/>
	<path class="st1" d="M440,124.2h1.7v1.5c0.1-0.2,0.3-0.4,0.4-0.6c0.2-0.2,0.4-0.4,0.6-0.6c0.2-0.2,0.5-0.3,0.8-0.4
		c0.3-0.1,0.6-0.1,1-0.1c0.8,0,1.5,0.2,2,0.5c0.6,0.3,0.9,0.9,1.2,1.5c0.1-0.2,0.3-0.5,0.4-0.7c0.2-0.2,0.4-0.5,0.6-0.7
		c0.2-0.2,0.5-0.4,0.8-0.5c0.3-0.1,0.7-0.2,1.1-0.2c0.5,0,0.9,0.1,1.3,0.2c0.4,0.1,0.8,0.3,1.1,0.6c0.3,0.3,0.5,0.6,0.7,1
		c0.2,0.4,0.2,0.9,0.2,1.4v6.4h-1.7v-5.9c0-0.7-0.2-1.3-0.6-1.6c-0.4-0.3-0.9-0.5-1.5-0.5c-0.3,0-0.6,0.1-0.9,0.2
		c-0.3,0.1-0.5,0.3-0.7,0.6c-0.2,0.3-0.4,0.6-0.5,1c-0.1,0.4-0.2,0.9-0.2,1.5v4.9h-1.7v-5.9c0-0.7-0.2-1.3-0.6-1.6
		c-0.4-0.3-0.9-0.5-1.5-0.5c-0.3,0-0.6,0.1-0.8,0.2c-0.3,0.1-0.5,0.3-0.8,0.5c-0.2,0.2-0.4,0.6-0.5,0.9c-0.1,0.4-0.2,0.9-0.2,1.4v5
		H440V124.2z"/>
	<path class="st1" d="M468.1,132.2c-0.3,0.4-0.7,0.7-1.2,1c-0.5,0.3-1.1,0.5-1.8,0.5c-0.6,0-1.2-0.1-1.7-0.3c-0.5-0.2-1-0.5-1.3-0.9
		c-0.4-0.4-0.7-0.9-0.9-1.5c-0.2-0.6-0.3-1.3-0.3-2.1c0-0.7,0.1-1.3,0.3-1.9c0.2-0.6,0.5-1.1,0.9-1.5c0.4-0.4,0.8-0.7,1.4-1
		c0.5-0.2,1.1-0.4,1.7-0.4c0.7,0,1.3,0.1,1.8,0.4c0.5,0.3,0.9,0.6,1.1,0.9v-1.1h1.7v9.4h-1.7V132.2z M465.4,132.3
		c0.4,0,0.8-0.1,1.2-0.3c0.3-0.2,0.6-0.4,0.9-0.7c0.2-0.3,0.4-0.7,0.6-1.1c0.1-0.4,0.2-0.9,0.2-1.3c0-0.6-0.1-1.2-0.2-1.6
		c-0.2-0.4-0.4-0.8-0.6-1.1c-0.3-0.3-0.6-0.5-0.9-0.6c-0.3-0.1-0.7-0.2-1.1-0.2c-0.4,0-0.8,0.1-1.2,0.3c-0.3,0.2-0.6,0.4-0.9,0.7
		c-0.2,0.3-0.4,0.7-0.5,1.1c-0.1,0.4-0.2,0.9-0.2,1.4c0,1,0.2,1.8,0.7,2.5C463.8,131.9,464.5,132.3,465.4,132.3"/>
	<path class="st1" d="M485.2,132.3c-0.2,0.1-0.4,0.3-0.6,0.5c-0.2,0.2-0.5,0.3-0.8,0.5c-0.3,0.1-0.6,0.3-1,0.4
		c-0.4,0.1-0.8,0.2-1.3,0.2c-0.7,0-1.3-0.1-1.9-0.4c-0.6-0.2-1.1-0.6-1.5-1c-0.4-0.4-0.8-1-1-1.6c-0.2-0.6-0.4-1.3-0.4-2
		c0-0.7,0.1-1.3,0.3-1.9c0.2-0.6,0.6-1.1,1-1.5c0.4-0.4,0.9-0.8,1.5-1c0.6-0.3,1.2-0.4,2-0.4c0.4,0,0.7,0,1.1,0.1
		c0.3,0.1,0.6,0.2,0.9,0.3c0.3,0.1,0.5,0.2,0.7,0.3c0.2,0.1,0.4,0.2,0.6,0.4l-0.8,1.2c-0.2-0.1-0.6-0.3-1-0.5
		c-0.4-0.2-0.9-0.3-1.5-0.3c-0.4,0-0.8,0.1-1.2,0.2c-0.4,0.2-0.7,0.4-1,0.6c-0.3,0.3-0.5,0.6-0.7,1c-0.2,0.4-0.3,0.9-0.3,1.4
		c0,0.5,0.1,1,0.3,1.5c0.2,0.4,0.4,0.8,0.7,1.1c0.3,0.3,0.7,0.5,1.1,0.7c0.4,0.2,0.8,0.2,1.3,0.2c0.3,0,0.6,0,0.9-0.1
		c0.3-0.1,0.5-0.2,0.7-0.3c0.2-0.1,0.4-0.2,0.6-0.3c0.2-0.1,0.3-0.2,0.4-0.3L485.2,132.3z"/>
	<path class="st1" d="M492.8,122.3c-0.3,0-0.6-0.1-0.9-0.3c-0.3-0.2-0.4-0.5-0.4-0.9c0-0.4,0.1-0.7,0.4-0.9c0.3-0.2,0.6-0.3,0.9-0.3
		c0.3,0,0.6,0.1,0.9,0.3c0.3,0.2,0.4,0.5,0.4,0.9c0,0.4-0.1,0.7-0.4,0.9C493.4,122.2,493.1,122.3,492.8,122.3 M492,124.2h1.7v9.4
		H492V124.2z"/>
	<path class="st1" d="M505.3,133.8c-0.7,0-1.3-0.1-1.9-0.4c-0.6-0.3-1.1-0.6-1.5-1c-0.4-0.4-0.7-1-0.9-1.6c-0.2-0.6-0.3-1.3-0.3-2
		c0-0.7,0.1-1.4,0.3-2c0.2-0.6,0.5-1.1,0.9-1.6c0.4-0.4,0.9-0.8,1.5-1c0.6-0.3,1.2-0.4,1.9-0.4c0.7,0,1.3,0.1,1.9,0.4
		c0.6,0.3,1.1,0.6,1.5,1c0.4,0.4,0.7,1,0.9,1.6c0.2,0.6,0.3,1.3,0.3,2c0,0.7-0.1,1.4-0.3,2c-0.2,0.6-0.5,1.1-0.9,1.6s-0.9,0.8-1.5,1
		C506.6,133.7,506,133.8,505.3,133.8 M505.3,132.3c0.5,0,0.9-0.1,1.3-0.3c0.4-0.2,0.7-0.5,0.9-0.8c0.3-0.3,0.4-0.7,0.6-1.1
		c0.1-0.4,0.2-0.8,0.2-1.3c0-0.5-0.1-0.9-0.2-1.3c-0.1-0.4-0.3-0.8-0.6-1.1c-0.3-0.3-0.6-0.6-0.9-0.8c-0.4-0.2-0.8-0.3-1.3-0.3
		c-0.5,0-0.9,0.1-1.3,0.3c-0.4,0.2-0.7,0.4-0.9,0.8c-0.2,0.3-0.4,0.7-0.6,1.1c-0.1,0.4-0.2,0.9-0.2,1.3c0,0.4,0.1,0.9,0.2,1.3
		c0.1,0.4,0.3,0.8,0.6,1.1c0.2,0.3,0.6,0.6,0.9,0.8C504.4,132.2,504.8,132.3,505.3,132.3 M506.9,118.7l1.1,0.9l-2.7,3.4l-1.1-0.9
		L506.9,118.7z"/>
	<path class="st1" d="M516.9,124.2h1.7v1.5c0.1-0.2,0.3-0.4,0.5-0.7c0.2-0.2,0.4-0.4,0.6-0.6c0.2-0.2,0.5-0.3,0.8-0.4
		c0.3-0.1,0.6-0.1,1-0.1c0.5,0,0.9,0.1,1.4,0.2c0.4,0.1,0.8,0.3,1.1,0.6c0.3,0.3,0.5,0.6,0.7,1c0.2,0.4,0.2,0.9,0.2,1.4v6.4h-1.7
		v-5.9c0-0.7-0.2-1.3-0.6-1.6c-0.4-0.3-0.9-0.5-1.5-0.5c-0.3,0-0.6,0.1-0.9,0.2c-0.3,0.1-0.6,0.3-0.8,0.5c-0.2,0.2-0.4,0.6-0.6,0.9
		c-0.2,0.4-0.2,0.9-0.2,1.4v5h-1.7V124.2z"/>
	<path class="st1" d="M537.7,135.8c0.2,0.1,0.5,0.2,0.7,0.4c0.3,0.1,0.6,0.2,0.9,0.2c0.2,0,0.5,0,0.7-0.1c0.2-0.1,0.4-0.1,0.6-0.3
		c0.2-0.1,0.4-0.3,0.5-0.6c0.2-0.2,0.3-0.6,0.5-0.9l0.5-1.2l-3.4-9.2h1.8l2.4,6.8l2.5-6.8h1.8l-4.2,10.7c-0.4,0.9-0.8,1.7-1.4,2.2
		c-0.6,0.5-1.3,0.8-2.3,0.8c-0.9,0-1.6-0.2-2.3-0.7L537.7,135.8z"/>
	<path class="st1" d="M221.6,157.5c-0.2,0.1-0.5,0.3-0.8,0.5s-0.6,0.4-1,0.6c-0.4,0.2-0.8,0.3-1.3,0.5s-1.1,0.2-1.7,0.2
		c-1,0-1.8-0.2-2.6-0.5c-0.8-0.3-1.5-0.8-2-1.4c-0.6-0.6-1-1.3-1.3-2.1c-0.3-0.8-0.5-1.7-0.5-2.7c0-1.1,0.2-2,0.5-2.8
		c0.4-0.8,0.9-1.5,1.4-2.1c0.6-0.6,1.3-1,2-1.3c0.8-0.3,1.6-0.4,2.4-0.4c0.5,0,1,0,1.4,0.1c0.4,0.1,0.8,0.2,1.1,0.3
		c0.3,0.1,0.6,0.3,0.9,0.4c0.3,0.1,0.5,0.3,0.7,0.4l-0.8,1.4c-0.4-0.2-0.8-0.4-1.4-0.6c-0.5-0.2-1.2-0.3-2-0.3
		c-0.6,0-1.2,0.1-1.8,0.4c-0.6,0.2-1.1,0.6-1.5,1c-0.4,0.4-0.7,1-1,1.6c-0.2,0.6-0.4,1.3-0.4,2c0,0.8,0.1,1.5,0.4,2.1
		c0.2,0.6,0.6,1.2,1,1.6c0.4,0.5,0.9,0.8,1.5,1.1c0.6,0.3,1.2,0.4,1.8,0.4c0.5,0,1-0.1,1.4-0.2c0.4-0.1,0.8-0.2,1.1-0.4
		c0.3-0.2,0.6-0.3,0.8-0.5c0.2-0.2,0.4-0.3,0.6-0.4L221.6,157.5z"/>
	<path class="st1" d="M231.7,159.4c-0.7,0-1.3-0.1-1.9-0.4c-0.6-0.3-1.1-0.6-1.5-1c-0.4-0.4-0.7-1-0.9-1.6c-0.2-0.6-0.3-1.3-0.3-2
		c0-0.7,0.1-1.4,0.3-2c0.2-0.6,0.5-1.1,0.9-1.6c0.4-0.4,0.9-0.8,1.5-1c0.6-0.3,1.2-0.4,1.9-0.4c0.7,0,1.3,0.1,1.9,0.4
		c0.6,0.3,1.1,0.6,1.5,1c0.4,0.4,0.7,1,0.9,1.6c0.2,0.6,0.3,1.3,0.3,2c0,0.7-0.1,1.4-0.3,2c-0.2,0.6-0.5,1.1-0.9,1.6
		c-0.4,0.4-0.9,0.8-1.5,1C233.1,159.2,232.4,159.4,231.7,159.4 M231.7,157.8c0.5,0,0.9-0.1,1.3-0.3c0.4-0.2,0.7-0.4,0.9-0.8
		c0.3-0.3,0.4-0.7,0.6-1.1c0.1-0.4,0.2-0.8,0.2-1.3c0-0.5-0.1-0.9-0.2-1.3c-0.1-0.4-0.3-0.8-0.6-1.1c-0.3-0.3-0.6-0.6-0.9-0.8
		c-0.4-0.2-0.8-0.3-1.3-0.3c-0.5,0-0.9,0.1-1.3,0.3c-0.4,0.2-0.7,0.4-0.9,0.8c-0.2,0.3-0.4,0.7-0.6,1.1c-0.1,0.4-0.2,0.9-0.2,1.3
		c0,0.4,0.1,0.9,0.2,1.3c0.1,0.4,0.3,0.8,0.6,1.1c0.2,0.3,0.6,0.6,0.9,0.8C230.8,157.7,231.2,157.8,231.7,157.8"/>
	<path class="st1" d="M242.9,149.7h1.7v1.5c0.1-0.2,0.3-0.4,0.5-0.7c0.2-0.2,0.4-0.4,0.6-0.6c0.2-0.2,0.5-0.3,0.8-0.4
		c0.3-0.1,0.6-0.2,1-0.2c0.5,0,0.9,0.1,1.3,0.2c0.4,0.1,0.8,0.3,1.1,0.6c0.3,0.3,0.5,0.6,0.7,1c0.2,0.4,0.2,0.9,0.2,1.4v6.4h-1.7
		v-5.9c0-0.7-0.2-1.3-0.6-1.6c-0.4-0.3-0.9-0.5-1.5-0.5c-0.3,0-0.6,0.1-0.9,0.2c-0.3,0.1-0.6,0.3-0.8,0.5c-0.2,0.2-0.4,0.6-0.6,0.9
		c-0.2,0.4-0.2,0.9-0.2,1.4v5h-1.7V149.7z"/>
	<path class="st1" d="M258,156.6c0.2,0.1,0.4,0.3,0.6,0.4c0.2,0.2,0.4,0.3,0.7,0.4c0.2,0.1,0.5,0.2,0.8,0.3c0.3,0.1,0.6,0.1,0.9,0.1
		c0.5,0,0.9-0.1,1.2-0.3c0.3-0.2,0.4-0.5,0.4-0.9c0-0.4-0.1-0.7-0.4-0.9c-0.3-0.2-0.7-0.4-1.3-0.6l-1.1-0.4c-0.7-0.3-1.2-0.6-1.6-1
		c-0.4-0.4-0.6-1-0.6-1.7c0-0.4,0.1-0.7,0.2-1c0.2-0.3,0.4-0.6,0.6-0.8c0.3-0.2,0.6-0.4,1-0.5c0.4-0.1,0.8-0.2,1.2-0.2
		c0.7,0,1.3,0.1,1.8,0.3c0.5,0.2,0.9,0.4,1.4,0.8l-0.7,1.1c-0.3-0.2-0.6-0.3-1-0.5c-0.4-0.2-0.8-0.3-1.4-0.3c-0.4,0-0.7,0.1-1,0.3
		c-0.3,0.2-0.4,0.5-0.4,0.8c0,0.3,0.1,0.6,0.3,0.8c0.2,0.2,0.5,0.4,1.1,0.6l1.3,0.5c0.3,0.1,0.6,0.3,0.9,0.4
		c0.3,0.2,0.5,0.3,0.8,0.5c0.2,0.2,0.4,0.4,0.5,0.7c0.1,0.3,0.2,0.6,0.2,0.9c0,0.4-0.1,0.8-0.2,1.2c-0.2,0.3-0.4,0.6-0.7,0.9
		c-0.3,0.2-0.7,0.4-1.1,0.6c-0.4,0.1-0.9,0.2-1.4,0.2c-0.8,0-1.4-0.2-2.1-0.5c-0.6-0.3-1.2-0.6-1.7-1L258,156.6z"/>
	<path class="st1" d="M270.6,149.7h1.7v5.5c0,0.8,0.2,1.5,0.6,1.9c0.4,0.5,1,0.7,1.7,0.7c0.7,0,1.3-0.2,1.7-0.7
		c0.4-0.5,0.6-1.1,0.6-1.9v-5.5h1.7v5.5c0,0.6-0.1,1.2-0.3,1.7c-0.2,0.5-0.5,0.9-0.8,1.3c-0.3,0.4-0.8,0.6-1.2,0.8
		c-0.5,0.2-1,0.3-1.6,0.3c-0.6,0-1.1-0.1-1.6-0.3c-0.5-0.2-0.9-0.5-1.2-0.8c-0.3-0.4-0.6-0.8-0.8-1.3c-0.2-0.5-0.3-1.1-0.3-1.7
		V149.7z"/>
	<rect x="285.6" y="144.7" class="st1" width="1.7" height="14.4"/>
	<path class="st1" d="M293.2,149.8h2v-3.3l1.7-0.2v3.6h3.7v1.5h-3.7v4.2c0,0.8,0.2,1.4,0.5,1.8c0.3,0.4,0.8,0.6,1.4,0.6
		c0.4,0,0.7-0.1,1-0.2c0.3-0.1,0.6-0.3,0.8-0.4l0.6,1.2c-0.3,0.2-0.7,0.4-1.1,0.6c-0.4,0.2-1,0.3-1.6,0.3c-0.6,0-1.1-0.1-1.5-0.3
		c-0.4-0.2-0.8-0.4-1.1-0.8c-0.3-0.3-0.5-0.7-0.6-1.1c-0.1-0.4-0.2-0.9-0.2-1.3v-4.6h-2V149.8z"/>
	<path class="st1" d="M310.8,159.4c-0.7,0-1.3-0.1-1.9-0.4c-0.6-0.3-1.1-0.6-1.5-1c-0.4-0.4-0.7-1-0.9-1.6c-0.2-0.6-0.3-1.3-0.3-2
		c0-0.7,0.1-1.4,0.3-2c0.2-0.6,0.5-1.1,0.9-1.6c0.4-0.4,0.9-0.8,1.5-1c0.6-0.3,1.2-0.4,1.9-0.4c0.7,0,1.3,0.1,1.9,0.4
		c0.6,0.3,1.1,0.6,1.5,1c0.4,0.4,0.7,1,0.9,1.6c0.2,0.6,0.3,1.3,0.3,2c0,0.7-0.1,1.4-0.3,2c-0.2,0.6-0.5,1.1-0.9,1.6
		c-0.4,0.4-0.9,0.8-1.5,1C312.2,159.2,311.5,159.4,310.8,159.4 M310.8,157.8c0.5,0,0.9-0.1,1.3-0.3c0.4-0.2,0.7-0.4,0.9-0.8
		c0.3-0.3,0.4-0.7,0.6-1.1c0.1-0.4,0.2-0.8,0.2-1.3c0-0.5-0.1-0.9-0.2-1.3c-0.1-0.4-0.3-0.8-0.6-1.1c-0.3-0.3-0.6-0.6-0.9-0.8
		c-0.4-0.2-0.8-0.3-1.3-0.3c-0.5,0-0.9,0.1-1.3,0.3c-0.4,0.2-0.7,0.4-0.9,0.8c-0.2,0.3-0.4,0.7-0.6,1.1c-0.1,0.4-0.2,0.9-0.2,1.3
		c0,0.4,0.1,0.9,0.2,1.3c0.1,0.4,0.3,0.8,0.6,1.1c0.2,0.3,0.6,0.6,0.9,0.8C309.9,157.7,310.3,157.8,310.8,157.8"/>
	<path class="st1" d="M322,149.7h1.7v1.8c0.3-0.6,0.7-1.1,1.1-1.4c0.4-0.4,0.9-0.5,1.6-0.5c0.1,0,0.3,0,0.4,0c0.2,0,0.3,0,0.5,0.1
		l-0.3,1.6c-0.2,0-0.4-0.1-0.5-0.1c-0.1,0-0.3,0-0.4,0c-0.3,0-0.6,0.1-0.9,0.2c-0.3,0.2-0.6,0.4-0.8,0.6c-0.2,0.3-0.4,0.6-0.5,0.9
		c-0.1,0.3-0.2,0.7-0.2,1.1v5.1H322V149.7z"/>
	<path class="st1" d="M335.9,144.2l1.1,0.9l-2.7,3.4l-1.1-0.9L335.9,144.2z M333.4,149.7h1.7v9.4h-1.7V149.7z"/>
	<path class="st1" d="M348.8,157.8c-0.3,0.4-0.7,0.7-1.2,1c-0.5,0.3-1.1,0.5-1.8,0.5c-0.6,0-1.2-0.1-1.7-0.3c-0.5-0.2-1-0.5-1.3-0.9
		c-0.4-0.4-0.7-0.9-0.9-1.5c-0.2-0.6-0.3-1.3-0.3-2.1c0-0.7,0.1-1.3,0.3-1.9c0.2-0.6,0.5-1.1,0.9-1.5c0.4-0.4,0.8-0.7,1.4-1
		c0.5-0.2,1.1-0.4,1.7-0.4c0.7,0,1.3,0.1,1.8,0.4c0.5,0.3,0.9,0.6,1.1,0.9v-1.1h1.7v9.4h-1.7V157.8z M346.1,157.8
		c0.4,0,0.8-0.1,1.2-0.3c0.3-0.2,0.6-0.4,0.9-0.7c0.2-0.3,0.4-0.7,0.6-1.1c0.1-0.4,0.2-0.9,0.2-1.3c0-0.6-0.1-1.2-0.2-1.6
		c-0.2-0.4-0.4-0.8-0.6-1.1c-0.3-0.3-0.6-0.5-0.9-0.6c-0.3-0.1-0.7-0.2-1.1-0.2c-0.4,0-0.8,0.1-1.2,0.3c-0.3,0.2-0.6,0.4-0.9,0.7
		c-0.2,0.3-0.4,0.7-0.5,1.1c-0.1,0.4-0.2,0.9-0.2,1.4c0,1,0.2,1.8,0.7,2.5C344.5,157.5,345.2,157.8,346.1,157.8"/>
	<polygon class="st1" points="365.3,146.1 367,146.1 369.7,154.9 373,146.1 376.4,154.9 379.1,146.1 380.7,146.1 376.7,159.3 
		376.4,159.3 373,150.5 369.6,159.3 369.3,159.3 	"/>
	<path class="st1" d="M386.9,154.9c0.1,0.4,0.2,0.8,0.3,1.1c0.2,0.4,0.4,0.7,0.6,0.9c0.3,0.3,0.6,0.5,1,0.6c0.4,0.2,0.8,0.2,1.3,0.2
		c0.3,0,0.7,0,0.9-0.1c0.3-0.1,0.5-0.2,0.8-0.3c0.2-0.1,0.4-0.2,0.6-0.3c0.2-0.1,0.3-0.2,0.5-0.4l0.7,1.2c-0.2,0.1-0.4,0.3-0.7,0.5
		c-0.2,0.2-0.5,0.3-0.8,0.5c-0.3,0.1-0.6,0.3-1,0.4c-0.4,0.1-0.8,0.1-1.2,0.1c-0.7,0-1.3-0.1-1.9-0.4c-0.6-0.2-1.1-0.6-1.5-1
		c-0.4-0.4-0.7-1-1-1.6c-0.2-0.6-0.4-1.3-0.4-2c0-0.7,0.1-1.4,0.3-2c0.2-0.6,0.5-1.1,0.9-1.5c0.4-0.4,0.9-0.8,1.4-1
		c0.5-0.2,1.1-0.4,1.8-0.4c0.7,0,1.4,0.1,1.9,0.4c0.5,0.3,0.9,0.6,1.3,1.1c0.3,0.4,0.6,1,0.7,1.5c0.2,0.6,0.2,1.2,0.2,1.8l0,0.6
		H386.9z M389.7,150.8c-0.8,0-1.4,0.2-1.8,0.7c-0.5,0.5-0.8,1.1-0.9,1.9h5.2c0-0.3-0.1-0.7-0.1-1c-0.1-0.3-0.2-0.6-0.5-0.8
		c-0.2-0.2-0.5-0.4-0.8-0.6C390.5,150.9,390.1,150.8,389.7,150.8"/>
	<path class="st1" d="M400.3,144.7h1.7v6.3c0.2-0.2,0.3-0.4,0.5-0.6c0.2-0.2,0.4-0.4,0.7-0.5c0.2-0.1,0.5-0.3,0.8-0.3
		c0.3-0.1,0.6-0.1,1-0.1c0.6,0,1.2,0.1,1.7,0.3c0.5,0.2,1,0.5,1.3,1c0.4,0.4,0.7,0.9,0.9,1.6c0.2,0.6,0.3,1.3,0.3,2.1
		c0,0.7-0.1,1.4-0.3,1.9c-0.2,0.6-0.5,1.1-0.9,1.5c-0.4,0.4-0.8,0.8-1.3,1c-0.5,0.2-1.1,0.4-1.7,0.4c-0.4,0-0.7,0-1.1-0.1
		c-0.3-0.1-0.6-0.2-0.8-0.3c-0.2-0.1-0.5-0.3-0.7-0.5c-0.2-0.2-0.4-0.3-0.5-0.5v1.2h-1.7V144.7z M404.8,157.9c0.4,0,0.8-0.1,1.2-0.3
		c0.3-0.2,0.6-0.4,0.9-0.8c0.2-0.3,0.4-0.7,0.5-1.1c0.1-0.4,0.2-0.9,0.2-1.4c0-1-0.3-1.9-0.8-2.5c-0.5-0.6-1.2-1-2.1-1
		c-0.4,0-0.8,0.1-1.2,0.3c-0.3,0.2-0.6,0.4-0.9,0.7c-0.2,0.3-0.4,0.7-0.6,1.1c-0.1,0.4-0.2,0.9-0.2,1.4c0,0.6,0.1,1.2,0.2,1.6
		c0.2,0.4,0.4,0.8,0.6,1.1c0.3,0.3,0.6,0.5,0.9,0.6C404.1,157.9,404.5,157.9,404.8,157.9"/>
	<path class="st1" d="M422.3,161.3c0.2,0.1,0.5,0.2,0.7,0.4c0.3,0.1,0.6,0.2,0.9,0.2c0.2,0,0.5,0,0.7-0.1c0.2-0.1,0.4-0.1,0.6-0.3
		c0.2-0.1,0.4-0.3,0.5-0.6c0.2-0.2,0.3-0.6,0.5-0.9l0.5-1.2l-3.4-9.1h1.8l2.4,6.8l2.5-6.8h1.8l-4.2,10.7c-0.4,0.9-0.8,1.7-1.4,2.2
		c-0.6,0.5-1.3,0.8-2.3,0.8c-0.9,0-1.6-0.2-2.3-0.7L422.3,161.3z"/>
	<path class="st1" d="M446.7,155.9c0.2,0.2,0.4,0.4,0.7,0.6c0.3,0.2,0.5,0.4,0.9,0.6c0.3,0.2,0.6,0.4,1,0.5c0.4,0.1,0.7,0.2,1.1,0.2
		c0.7,0,1.2-0.2,1.6-0.5s0.5-0.8,0.5-1.4c0-0.5-0.2-0.9-0.5-1.3c-0.4-0.3-0.8-0.7-1.5-1l-1.2-0.6c-0.3-0.1-0.6-0.3-1-0.5
		c-0.4-0.2-0.7-0.5-1-0.7c-0.3-0.3-0.6-0.6-0.8-1c-0.2-0.4-0.3-0.9-0.3-1.4c0-0.5,0.1-0.9,0.2-1.3c0.2-0.4,0.4-0.8,0.7-1.1
		c0.3-0.3,0.7-0.6,1.2-0.7c0.5-0.2,1.1-0.3,1.7-0.3c0.4,0,0.8,0,1.2,0.1c0.4,0.1,0.7,0.2,1,0.4c0.3,0.2,0.6,0.3,0.8,0.5
		c0.2,0.2,0.5,0.4,0.7,0.6l-0.9,1.1c-0.1-0.1-0.3-0.3-0.5-0.4c-0.2-0.1-0.4-0.3-0.7-0.4c-0.2-0.1-0.5-0.2-0.8-0.3
		c-0.3-0.1-0.6-0.1-0.9-0.1c-0.3,0-0.5,0-0.8,0.1c-0.3,0.1-0.5,0.2-0.7,0.4c-0.2,0.2-0.4,0.3-0.5,0.6c-0.1,0.2-0.2,0.5-0.2,0.8
		c0,0.5,0.1,0.8,0.4,1.2c0.3,0.3,0.8,0.7,1.4,1l1.5,0.8c0.3,0.2,0.6,0.4,1,0.6c0.3,0.2,0.6,0.5,0.9,0.7c0.3,0.3,0.5,0.6,0.6,1
		c0.2,0.4,0.2,0.8,0.2,1.3c0,0.5-0.1,0.9-0.2,1.4c-0.2,0.4-0.4,0.8-0.7,1.1c-0.3,0.3-0.7,0.6-1.2,0.8c-0.5,0.2-1.1,0.3-1.7,0.3
		c-0.5,0-0.9-0.1-1.4-0.2c-0.4-0.1-0.8-0.3-1.2-0.5c-0.4-0.2-0.7-0.4-1-0.7c-0.3-0.3-0.6-0.5-0.8-0.7L446.7,155.9z"/>
	<path class="st1" d="M464.8,159.4c-0.7,0-1.3-0.1-1.9-0.4c-0.6-0.3-1.1-0.6-1.5-1c-0.4-0.4-0.7-1-0.9-1.6c-0.2-0.6-0.3-1.3-0.3-2
		c0-0.7,0.1-1.4,0.3-2c0.2-0.6,0.5-1.1,0.9-1.6c0.4-0.4,0.9-0.8,1.5-1c0.6-0.3,1.2-0.4,1.9-0.4c0.7,0,1.3,0.1,1.9,0.4
		c0.6,0.3,1.1,0.6,1.5,1c0.4,0.4,0.7,1,0.9,1.6c0.2,0.6,0.3,1.3,0.3,2c0,0.7-0.1,1.4-0.3,2c-0.2,0.6-0.5,1.1-0.9,1.6
		c-0.4,0.4-0.9,0.8-1.5,1C466.2,159.2,465.5,159.4,464.8,159.4 M464.8,157.8c0.5,0,0.9-0.1,1.3-0.3c0.4-0.2,0.7-0.4,0.9-0.8
		c0.3-0.3,0.4-0.7,0.6-1.1c0.1-0.4,0.2-0.8,0.2-1.3c0-0.5-0.1-0.9-0.2-1.3c-0.1-0.4-0.3-0.8-0.6-1.1c-0.3-0.3-0.6-0.6-0.9-0.8
		c-0.4-0.2-0.8-0.3-1.3-0.3c-0.5,0-0.9,0.1-1.3,0.3c-0.4,0.2-0.7,0.4-0.9,0.8c-0.2,0.3-0.4,0.7-0.6,1.1c-0.1,0.4-0.2,0.9-0.2,1.3
		c0,0.4,0.1,0.9,0.2,1.3c0.1,0.4,0.3,0.8,0.6,1.1c0.2,0.3,0.6,0.6,0.9,0.8C463.9,157.7,464.3,157.8,464.8,157.8"/>
	<path class="st1" d="M474.7,149.7h2v-1c0-0.6,0.1-1.1,0.3-1.6c0.2-0.5,0.4-1,0.8-1.4c0.3-0.4,0.7-0.7,1.2-0.9
		c0.5-0.2,1-0.3,1.6-0.3c0.4,0,0.8,0,1,0.1c0.2,0.1,0.4,0.1,0.7,0.2l-0.4,1.5c-0.2-0.1-0.4-0.1-0.5-0.1c-0.2,0-0.4-0.1-0.7-0.1
		c-0.4,0-0.7,0.1-1,0.2c-0.3,0.1-0.5,0.3-0.7,0.6c-0.2,0.2-0.3,0.5-0.4,0.9c-0.1,0.3-0.1,0.7-0.1,1v1.1h4.7v-3.6h1.7v3.6h3.7v1.5
		h-3.7v4.2c0,0.8,0.2,1.4,0.5,1.8c0.3,0.4,0.8,0.6,1.4,0.6c0.4,0,0.7-0.1,1-0.2c0.3-0.1,0.6-0.3,0.8-0.4l0.6,1.2
		c-0.3,0.2-0.7,0.4-1.1,0.6s-1,0.3-1.6,0.3c-0.6,0-1.1-0.1-1.5-0.3c-0.4-0.2-0.8-0.5-1.1-0.8c-0.3-0.3-0.5-0.7-0.6-1.1
		c-0.1-0.4-0.2-0.9-0.2-1.3v-4.6h-4.7v7.9h-1.7v-7.9h-2V149.7z"/>
	<polygon class="st1" points="493.6,149.7 495.3,149.7 497.5,155.9 500.2,149.7 500.4,149.7 503.2,155.9 505.3,149.7 506.9,149.7 
		503.5,159.3 503.1,159.3 500.2,153.1 497.4,159.3 496.9,159.3 	"/>
	<path class="st1" d="M519.2,157.8c-0.3,0.4-0.7,0.7-1.2,1c-0.5,0.3-1.1,0.5-1.8,0.5c-0.6,0-1.2-0.1-1.7-0.3c-0.5-0.2-1-0.5-1.3-0.9
		c-0.4-0.4-0.7-0.9-0.9-1.5c-0.2-0.6-0.3-1.3-0.3-2.1c0-0.7,0.1-1.3,0.3-1.9c0.2-0.6,0.5-1.1,0.9-1.5c0.4-0.4,0.8-0.7,1.4-1
		c0.5-0.2,1.1-0.4,1.7-0.4c0.7,0,1.3,0.1,1.8,0.4c0.5,0.3,0.9,0.6,1.1,0.9v-1.1h1.7v9.4h-1.7V157.8z M516.5,157.8
		c0.4,0,0.8-0.1,1.2-0.3c0.3-0.2,0.6-0.4,0.9-0.7c0.2-0.3,0.4-0.7,0.6-1.1c0.1-0.4,0.2-0.9,0.2-1.3c0-0.6-0.1-1.2-0.2-1.6
		c-0.2-0.4-0.4-0.8-0.6-1.1c-0.3-0.3-0.6-0.5-0.9-0.6c-0.3-0.1-0.7-0.2-1.1-0.2c-0.4,0-0.8,0.1-1.2,0.3c-0.3,0.2-0.6,0.4-0.9,0.7
		c-0.2,0.3-0.4,0.7-0.5,1.1c-0.1,0.4-0.2,0.9-0.2,1.4c0,1,0.2,1.8,0.7,2.5C514.9,157.5,515.6,157.8,516.5,157.8"/>
	<path class="st1" d="M528.3,149.7h1.7v1.8c0.3-0.6,0.7-1.1,1.1-1.4c0.4-0.4,0.9-0.5,1.6-0.5c0.1,0,0.3,0,0.4,0c0.2,0,0.3,0,0.5,0.1
		l-0.3,1.6c-0.2,0-0.3-0.1-0.5-0.1c-0.1,0-0.3,0-0.4,0c-0.3,0-0.6,0.1-0.9,0.2c-0.3,0.2-0.6,0.4-0.8,0.6c-0.2,0.3-0.4,0.6-0.5,0.9
		c-0.1,0.3-0.2,0.7-0.2,1.1v5.1h-1.7V149.7z"/>
	<path class="st1" d="M540.3,154.9c0.1,0.4,0.2,0.8,0.3,1.1c0.2,0.4,0.4,0.7,0.6,0.9c0.3,0.3,0.6,0.5,1,0.6c0.4,0.2,0.8,0.2,1.3,0.2
		c0.3,0,0.7,0,0.9-0.1c0.3-0.1,0.5-0.2,0.8-0.3c0.2-0.1,0.4-0.2,0.6-0.3c0.2-0.1,0.3-0.2,0.5-0.4l0.7,1.2c-0.2,0.1-0.4,0.3-0.7,0.5
		c-0.2,0.2-0.5,0.3-0.8,0.5c-0.3,0.1-0.6,0.3-1,0.4c-0.4,0.1-0.8,0.1-1.2,0.1c-0.7,0-1.3-0.1-1.9-0.4c-0.6-0.2-1.1-0.6-1.5-1
		c-0.4-0.4-0.7-1-1-1.6c-0.2-0.6-0.4-1.3-0.4-2c0-0.7,0.1-1.4,0.3-2c0.2-0.6,0.5-1.1,0.9-1.5c0.4-0.4,0.9-0.8,1.4-1
		c0.5-0.2,1.1-0.4,1.8-0.4c0.7,0,1.4,0.1,1.9,0.4c0.5,0.3,0.9,0.6,1.3,1.1s0.6,1,0.7,1.5c0.2,0.6,0.2,1.2,0.2,1.8l0,0.6H540.3z
		 M543.1,150.8c-0.8,0-1.4,0.2-1.8,0.7c-0.5,0.5-0.8,1.1-0.9,1.9h5.2c0-0.3-0.1-0.7-0.2-1c-0.1-0.3-0.2-0.6-0.5-0.8
		c-0.2-0.2-0.5-0.4-0.8-0.6C543.9,150.9,543.5,150.8,543.1,150.8"/>
	<path class="st0" d="M21.7,145.3l5.1-4.7C15.7,126.5,9.7,108.8,9.7,90.8C9.7,46.1,46,9.7,90.7,9.7c5.4,0,10.8,0.5,16,1.6
		c1.9,0.4,3.7-0.8,4-2.7c0.4-1.9-0.8-3.7-2.7-4c-5.7-1.1-11.5-1.7-17.3-1.7c-23.5,0-45.6,9.1-62.2,25.8C11.9,45.2,2.8,67.3,2.8,90.8
		C2.8,110.6,9.5,129.8,21.7,145.3"/>
	<path class="st2" d="M149.8,111.4c2.3-6.4,3.5-13.4,3.5-20.6c0-7.2-1.2-14.1-3.5-20.6c-0.1-0.2-0.1-0.4-0.2-0.6
		c-8.7-24.1-31.8-41.4-58.9-41.4c-27.1,0-50.2,17.3-58.9,41.4c-0.1,0.2-0.1,0.4-0.2,0.6c-2.3,6.4-3.5,13.4-3.5,20.6
		c0,7.2,1.2,14.1,3.5,20.6c0.1,0.2,0.1,0.4,0.2,0.6c8.7,24.1,31.8,41.4,58.9,41.4c27.1,0,50.2-17.3,58.9-41.4
		C149.7,111.8,149.7,111.6,149.8,111.4 M90.7,144.4c-2.4,0-6.2-4.3-9.4-13.9c-1.6-4.6-2.8-10-3.7-15.8h26.3
		c-0.9,5.8-2.1,11.2-3.7,15.8C96.9,140.1,93.1,144.4,90.7,144.4 M76.5,105.7c-0.4-4.8-0.7-9.8-0.7-14.9c0-5.1,0.2-10.1,0.7-14.9
		h28.4c0.4,4.8,0.7,9.8,0.7,14.9c0,5.1-0.2,10.1-0.7,14.9H76.5z M37.1,90.8c0-5.2,0.7-10.2,2.1-14.9h28.3c-0.4,4.9-0.6,9.9-0.6,14.9
		c0,5,0.2,10,0.6,14.9H39.2C37.8,100.9,37.1,96,37.1,90.8 M90.7,37.2c2.4,0,6.2,4.3,9.4,13.9c1.6,4.6,2.8,10,3.7,15.8H77.6
		c0.9-5.8,2.1-11.2,3.7-15.8C84.5,41.5,88.3,37.2,90.7,37.2 M113.9,75.9h28.3c1.4,4.7,2.1,9.7,2.1,14.9c0,5.2-0.7,10.2-2.1,14.9
		h-28.3c0.4-4.9,0.6-9.9,0.6-14.9C114.5,85.8,114.3,80.8,113.9,75.9 M138.7,67h-25.8c-1.6-11-4.3-20.9-8.2-27.9
		C119.6,43.1,131.9,53.4,138.7,67 M76.7,39.1c-3.8,7-6.6,16.9-8.2,27.9H42.7C49.5,53.4,61.8,43.1,76.7,39.1 M42.7,114.6h25.8
		c1.6,11,4.3,20.9,8.2,27.9C61.8,138.5,49.5,128.2,42.7,114.6 M104.7,142.5c3.8-7,6.6-16.9,8.2-27.9h25.8
		C131.9,128.2,119.6,138.5,104.7,142.5"/>
	<path class="st1" d="M122.3,15.9c0.9,0,1.8-0.4,2.4-1c0.6-0.6,1-1.5,1-2.4c0-0.9-0.4-1.8-1-2.4c-0.6-0.6-1.5-1-2.4-1
		c-0.9,0-1.8,0.4-2.4,1c-0.6,0.6-1,1.5-1,2.4c0,0.9,0.4,1.8,1,2.4C120.5,15.5,121.4,15.9,122.3,15.9"/>
	<path class="st0" d="M59.2,165.8c-0.9,0-1.8,0.4-2.4,1c-0.6,0.6-1,1.5-1,2.4c0,0.9,0.4,1.8,1,2.4c0.6,0.6,1.5,1,2.4,1
		c0.9,0,1.8-0.4,2.4-1c0.6-0.6,1-1.5,1-2.4c0-0.9-0.4-1.8-1-2.4C61,166.2,60.1,165.8,59.2,165.8"/>
	<path class="st3" d="M21.4,144.2L21.4,144.2c-3.7,5.6-3.1,13.3,1.8,18.2c2.7,2.7,6.3,4.2,10.2,4.2s7.5-1.5,10.2-4.2
		c2.7-2.7,4.2-6.3,4.2-10.2c0-3.9-1.5-7.5-4.2-10.2c-2.7-2.7-6.3-4.2-10.2-4.2c-2.5,0-4.8,0.6-6.9,1.8
		C26.4,139.5,23.4,141.1,21.4,144.2 M38.7,146.9c1.4,1.4,2.2,3.3,2.2,5.3c0,2-0.8,3.9-2.2,5.3c-1.4,1.4-3.3,2.2-5.3,2.2
		c-2,0-3.9-0.8-5.3-2.2c-2.9-2.9-2.9-7.7,0-10.7c1.4-1.4,3.3-2.2,5.3-2.2C35.4,144.6,37.3,145.4,38.7,146.9"/>
	<path class="st1" d="M160.8,35.9l-5.1,4.7c11.1,14.2,17.1,31.8,17.1,49.8c0,44.7-36.4,81.1-81.1,81.1c-5.4,0-10.8-0.5-16-1.6
		c-1.9-0.4-3.7,0.8-4,2.7c-0.4,1.9,0.8,3.7,2.7,4c5.7,1.1,11.5,1.7,17.3,1.7c23.5,0,45.6-9.1,62.2-25.8
		c16.6-16.6,25.8-38.7,25.8-62.2C179.8,70.6,173.1,51.3,160.8,35.9"/>
	<path class="st3" d="M161.1,36.3L161.1,36.3c3.7-5.6,3.1-13.3-1.8-18.2c-2.7-2.7-6.3-4.2-10.2-4.2c-3.9,0-7.5,1.5-10.2,4.2
		c-2.7,2.7-4.2,6.3-4.2,10.2c0,3.9,1.5,7.5,4.2,10.2c2.7,2.7,6.3,4.2,10.2,4.2c2.5,0,4.8-0.6,6.9-1.8C156,41,159.1,39.5,161.1,36.3
		 M143.7,33.7c-1.4-1.4-2.2-3.3-2.2-5.3c0-2,0.8-3.9,2.2-5.3c1.4-1.4,3.3-2.2,5.3-2.2c2,0,3.9,0.8,5.3,2.2c2.9,2.9,2.9,7.7,0,10.7
		c-1.4,1.4-3.3,2.2-5.3,2.2C147,35.9,145.1,35.1,143.7,33.7"/>
</g>
</svg>
