<?xml version="1.0" encoding="utf-8"?>
<!-- Generator: Adobe Illustrator 22.0.0, SVG Export Plug-In . SVG Version: 6.00 Build 0)  -->
<svg version="1.1" id="Layer_1" xmlns="http://www.w3.org/2000/svg" xmlns:xlink="http://www.w3.org/1999/xlink" x="0px" y="0px"
	 viewBox="0 0 557 184.3" style="enable-background:new 0 0 557 184.3;" xml:space="preserve">
<style type="text/css">
	.st0{clip-path:url(#SVGID_2_);fill:#FFFFFF;}
</style>
<g>
	<defs>
		<rect id="SVGID_1_" x="-117" y="-72.4" width="792" height="341.1"/>
	</defs>
	<clipPath id="SVGID_2_">
		<use xlink:href="#SVGID_1_"  style="overflow:visible;"/>
	</clipPath>
	<path class="st0" d="M15,116.3c5.3,3.9,10.9,7.4,16.8,10.7c5.9,3.3,12.2,4.9,18.8,4.9c4.7,0,8.3-1,10.9-3.1
		c2.6-2.1,3.9-4.9,3.9-8.7c0-3.2-1.1-5.8-3.4-8c-2.3-2.1-5.3-4.1-9.2-6l-15.2-6c-3.9-1.6-7.6-3.5-11.4-5.7c-3.7-2.2-7-4.9-10-8.1
		c-2.9-3.2-5.3-6.9-7.1-11.1c-1.8-4.2-2.7-9-2.7-14.5c0-5.4,1-10.5,2.9-15.1s4.8-8.6,8.5-12c3.7-3.4,8.3-6,13.7-7.9
		c5.4-1.9,11.5-2.8,18.2-2.8c8.2,0,15.7,1.4,22.4,4.2c6.7,2.8,13.1,6.5,19,11.2L78.8,58.7c-1.6-1.2-3.5-2.4-5.6-3.6
		c-2.1-1.2-4.4-2.3-6.9-3.3c-2.5-1-5-1.8-7.7-2.5c-2.7-0.7-5.3-1-7.8-1c-3.9,0-7.2,0.9-10,2.8c-2.8,1.9-4.2,4.5-4.2,8
		c0,3.5,1.2,6.2,3.7,8.4c2.5,2.1,6.3,4.3,11.7,6.6l15,6.8c8.4,3.6,15.2,8.3,20.5,14.2c5.3,5.9,8,13.3,8,22.3
		c0,6.3-1.1,11.8-3.4,16.8c-2.3,4.9-5.4,9.1-9.5,12.5c-4.1,3.4-8.9,6-14.5,7.9c-5.6,1.9-11.6,2.8-18.1,2.8c-4.5,0-8.9-0.6-13.3-1.7
		c-4.3-1.1-8.5-2.6-12.7-4.5c-4.1-1.9-8-4-11.8-6.4c-3.7-2.4-7.2-4.9-10.4-7.6L15,116.3z"/>
	<rect x="117.5" y="25.6" class="st0" width="29.7" height="129.2"/>
	<path class="st0" d="M282,140c-2.8,1.9-5.7,3.8-8.8,5.8c-3.1,2-6.5,3.9-10.3,5.6c-3.8,1.7-8.1,3.1-12.9,4.2
		c-4.8,1.1-10.3,1.6-16.6,1.6c-9.6,0-18.4-1.7-26.4-5c-8-3.3-15-8-20.7-14c-5.8-6-10.3-13.1-13.5-21.3c-3.2-8.2-4.8-17.3-4.8-27.1
		c0-10.1,1.8-19.3,5.3-27.5c3.5-8.2,8.3-15.3,14.3-21.2c6-5.9,12.9-10.5,20.8-13.7c7.9-3.2,16.3-4.8,25-4.8c5.2,0,9.9,0.4,14.2,1.3
		c4.3,0.9,8.1,2,11.7,3.3c3.5,1.3,6.7,2.8,9.5,4.4c2.8,1.6,5.3,3.1,7.6,4.4L264,58.1c-2.5-1.5-6.2-3.2-11-5.3
		c-4.8-2.1-10.6-3.1-17.5-3.1c-5.3,0-10.2,1-14.8,2.9c-4.5,1.9-8.4,4.7-11.8,8.2c-3.3,3.5-6,7.7-7.9,12.6
		c-1.9,4.9-2.9,10.1-2.9,15.9c0,6.1,1,11.7,2.9,16.8c1.9,5.1,4.6,9.4,8.1,13.1c3.5,3.7,7.5,6.5,12.2,8.5c4.7,2,9.7,3,15.2,3
		c4,0,7.6-0.4,11-1.3c3.3-0.9,6.3-1.9,9-3.1c2.7-1.2,5-2.5,7.1-3.8c2.1-1.3,4-2.5,5.7-3.6L282,140z"/>
	<polygon class="st0" points="286.7,25.6 316.9,25.6 338.8,95.4 367.9,25.6 397.4,96 418.7,25.6 448.9,25.6 408.2,156.2 400,156.2 
		367.7,85.4 335.4,156.2 327.2,156.2 	"/>
	<path class="st0" d="M468.4,116.3c5.3,3.9,10.9,7.4,16.8,10.7c5.9,3.3,12.2,4.9,18.8,4.9c4.7,0,8.3-1,10.9-3.1
		c2.6-2.1,3.9-4.9,3.9-8.7c0-3.2-1.1-5.8-3.4-8c-2.3-2.1-5.3-4.1-9.2-6l-15.2-6c-3.9-1.6-7.6-3.5-11.4-5.7c-3.7-2.2-7-4.9-10-8.1
		c-2.9-3.2-5.3-6.9-7.1-11.1c-1.8-4.2-2.7-9-2.7-14.5c0-5.4,1-10.5,2.9-15.1s4.8-8.6,8.5-12c3.7-3.4,8.3-6,13.7-7.9
		c5.4-1.9,11.5-2.8,18.2-2.8c8.2,0,15.7,1.4,22.4,4.2c6.7,2.8,13.1,6.5,19,11.2l-12.6,20.1c-1.6-1.2-3.5-2.4-5.6-3.6
		c-2.1-1.2-4.4-2.3-6.9-3.3c-2.5-1-5-1.8-7.7-2.5c-2.7-0.7-5.3-1-7.8-1c-3.9,0-7.2,0.9-10,2.8c-2.8,1.9-4.2,4.5-4.2,8
		c0,3.5,1.2,6.2,3.7,8.4c2.5,2.1,6.3,4.3,11.7,6.6l15,6.8c8.4,3.6,15.2,8.3,20.5,14.2c5.3,5.9,8,13.3,8,22.3
		c0,6.3-1.1,11.8-3.4,16.8c-2.3,4.9-5.4,9.1-9.5,12.5c-4.1,3.4-8.9,6-14.5,7.9c-5.6,1.9-11.6,2.8-18.1,2.8c-4.5,0-8.9-0.6-13.3-1.7
		c-4.3-1.1-8.5-2.6-12.7-4.5c-4.1-1.9-8-4-11.8-6.4c-3.7-2.4-7.2-4.9-10.4-7.6L468.4,116.3z"/>
</g>
</svg>
